<svg xmlns="http://www.w3.org/2000/svg" width="35" height="35"><path fill="none" d="M0 0h35v35H0z"/><path d="M24.847 32.423H10.231A3.928 3.928 0 016.308 28.5V6.577a3.923 3.923 0 013.923-3.923h10.231a1 1 0 010 2H10.231a1.923 1.923 0 00-1.923 1.923V28.5a1.925 1.925 0 001.923 1.923h14.616A1.925 1.925 0 0026.77 28.5V15.346a1 1 0 112 0V28.5a3.928 3.928 0 01-3.923 3.923z" fill="#fff"/><path d="M27.77 11.962h-5.308a3 3 0 01-3-3V3.654a1 1 0 012 0v5.313a1 1 0 001 1h5.313a1 1 0 010 2z" fill="#fff"/><path d="M27.77 11.962a1 1 0 01-1-1 6.315 6.315 0 00-6.308-6.308 1 1 0 010-2 8.317 8.317 0 018.308 8.308 1 1 0 01-1 1zM21 17h-7a1 1 0 01-1-1 1 1 0 011-1h7a1 1 0 011 1 1 1 0 01-1 1zm0 5h-7a1 1 0 01-1-1 1 1 0 011-1h7a1 1 0 011 1 1 1 0 01-1 1z" fill="#fff"/></svg>