<svg xmlns="http://www.w3.org/2000/svg" width="295" height="183.647"><path d="M149.511 109.099a2.432 2.432 0 01-.429-.039 2.373 2.373 0 01-1.908-2.761c1.285-7.042 9.463-6.749 12.957-6.62.483.016.887.034 1.171.024a12.2 12.2 0 005.447-1.222 6.762 6.762 0 003.391-4.135 11.4 11.4 0 00-1.4-8.338 22.734 22.734 0 00-5.282-5.823 34.86 34.86 0 01-4.757-4.766 87.217 87.217 0 01-5.159-9.206l-1.16 2.167a2.368 2.368 0 01-2.172 1.252 23.86 23.86 0 00-3.148.07c-.754.121-2.26.654-2.567 1.809l-.033.114-.821 2.558a2.373 2.373 0 01-1.309 1.449l-.384.169.367 1.523c.657 2.469 1.543 2.912 3.162 2.912 4.355 0 5.161.584 5.761 1.35 1.19 1.512.962 14.809.957 14.939a2.373 2.373 0 01-2.369 2.276h-.1a2.373 2.373 0 01-2.274-2.461c.027-.975-.1-8.124-.257-11.3a30.255 30.255 0 00-1.72-.054c-4.007 0-6.617-2.184-7.761-6.493l-.847-3.509a2.374 2.374 0 011.356-2.731l1.225-.536.478-1.488c.9-3.232 3.992-4.825 6.382-5.208a18.329 18.329 0 012.571-.151l2.639-4.927a2.424 2.424 0 012.133-1.252 2.372 2.372 0 012.088 1.325c2 4.073 5.6 11.065 6.707 12.495a30.836 30.836 0 004.139 4.111 26.745 26.745 0 016.3 7.08 15.976 15.976 0 011.819 11.95 11.5 11.5 0 01-5.654 6.985 17.107 17.107 0 01-7.547 1.812c-.375.015-.906 0-1.544-.023-4.547-.169-7.663.238-8.117 2.731a2.373 2.373 0 01-2.331 1.947" fill="#006230"/><path d="M142.031 98.278h-7.869a22.618 22.618 0 01-2.93-.316c-4.205-.77-10.48-4.924-11.261-11.752-.746-6.51-1.084-12.383 2.367-18.323 2.65-4.56 6.81-7.451 10.835-10.247l.8-.555c4.27-2.98 7.159-5.3 8.375-10.151a23.442 23.442 0 014.462-9.906q1.509-1.966 3.033-3.927l1.113-1.438a2.781 2.781 0 014.922 1.129l1.35 6.4h3.529a10.706 10.706 0 018.476 4.125l1.715 2.187 3.116.331a5.087 5.087 0 013.628 1.822 4.857 4.857 0 01.677 3.908c-.212 1.138-.991 4.3-1.024 4.43-.01.038-.019.074-.031.111-.867 2.908-3.489 6.41-11.051 6.589-.325.009-.694.017-.694 2a2.373 2.373 0 11-4.746 0c0-5.972 3.727-6.705 5.329-6.743 3.753-.088 5.972-1.149 6.6-3.153.227-.926.8-3.29.951-4.1.008-.042.013-.08.019-.115a5.204 5.204 0 00-.185-.026l-4.094-.439a2.375 2.375 0 01-1.617-.9l-2.334-2.977a5.985 5.985 0 00-4.74-2.308h-5.455a2.373 2.373 0 01-2.322-1.883l-.872-4.133q-.767 1-1.533 1.991c-2.122 2.766-2.735 4.614-3.625 8.17-1.606 6.418-5.6 9.635-10.262 12.891l-.807.561c-3.764 2.616-7.319 5.085-9.438 8.734-2.725 4.689-2.427 9.542-1.755 15.4.478 4.179 4.6 7.113 7.4 7.623a17.791 17.791 0 002.255.242h7.691a2.373 2.373 0 110 4.745" fill="#006230"/><path d="M146.185 74.543a1.755 1.755 0 101.107-2.22 1.755 1.755 0 00-1.107 2.22m14.346-24.648a1.755 1.755 0 101.754-1.754 1.755 1.755 0 00-1.754 1.754m-16.179 78.807a2.373 2.373 0 01-2.373-2.373c0-4.855-.139-7.3-3.276-9.869-1.311-1.072-2.788-1.373-4.829-1.791a25.842 25.842 0 01-9.254-3.421 20.053 20.053 0 01-8.383-10.155 2.373 2.373 0 014.467-1.6 15.291 15.291 0 006.411 7.722 21.165 21.165 0 007.708 2.809c2.294.468 4.667.953 6.885 2.767 5.018 4.1 5.018 8.69 5.018 13.543a2.373 2.373 0 01-2.373 2.373" fill="#006230"/><path d="M128.258 122.215a2.387 2.387 0 01-.426-.039 30.737 30.737 0 01-15.8-9.53c-7.273-8.016-8.739-20.516-8.8-21.043a2.373 2.373 0 014.717-.527c.016.149 1.378 11.529 7.6 18.382a26.466 26.466 0 0013.139 8.052 2.374 2.374 0 01-.432 4.707m25.441 6.485a2.373 2.373 0 01-2.373-2.373c0-4.854 0-9.439 5.017-13.543 2.219-1.815 4.591-2.3 6.886-2.767a21.168 21.168 0 007.707-2.809 15.291 15.291 0 006.411-7.722 2.373 2.373 0 014.467 1.6 20.053 20.053 0 01-8.383 10.155 25.839 25.839 0 01-9.253 3.421c-2.042.418-3.518.719-4.83 1.792-3.136 2.566-3.275 5.013-3.275 9.868a2.373 2.373 0 01-2.374 2.378" fill="#006230"/><path d="M169.791 122.214a2.373 2.373 0 01-.422-4.708 26.479 26.479 0 0013.131-8.051c6.228-6.863 7.583-18.268 7.6-18.383a2.373 2.373 0 014.717.527c-.059.528-1.524 13.028-8.8 21.045a30.737 30.737 0 01-15.8 9.53 2.4 2.4 0 01-.427.039m-20.765-97.694a2.373 2.373 0 01-2.373-2.373V2.372a2.373 2.373 0 014.746 0v19.774a2.373 2.373 0 01-2.373 2.373m-11.081 1.956a2.374 2.374 0 01-2.23-1.563l-6.764-18.58a2.373 2.373 0 114.46-1.623l6.763 18.582a2.376 2.376 0 01-2.23 3.185m-9.746 5.626a2.363 2.363 0 01-1.818-.848L113.67 16.107a2.373 2.373 0 113.635-3.051l12.71 15.148a2.373 2.373 0 01-1.816 3.9m-7.236 8.621a2.361 2.361 0 01-1.185-.319l-17.125-9.886a2.373 2.373 0 012.373-4.11l17.125 9.888a2.373 2.373 0 01-1.188 4.428m56.124-.001a2.373 2.373 0 01-1.188-4.428l17.125-9.888a2.373 2.373 0 012.373 4.11l-17.125 9.887a2.362 2.362 0 01-1.185.319m-7.236-8.623a2.373 2.373 0 01-1.816-3.9l12.71-15.148a2.373 2.373 0 113.635 3.051l-12.711 15.149a2.363 2.363 0 01-1.818.848m-9.744-5.627a2.376 2.376 0 01-2.23-3.185l6.763-18.582a2.373 2.373 0 014.46 1.623l-6.763 18.582a2.374 2.374 0 01-2.23 1.563m36.07 57.942a18.494 18.494 0 01-5-.809 2.373 2.373 0 111.2-4.591h.017a10.935 10.935 0 006.981.133c4.246-1.278 7.279-5.927 8.761-8.712-2.962-1.024-8.322-2.4-12.57-.85-5.985 2.179-8.022 9.621-8.042 9.7a2.373 2.373 0 01-4.587-1.217c.108-.4 2.719-9.922 11.006-12.938 8.054-2.933 18.02 1.688 18.441 1.886a2.373 2.373 0 011.2 3.016c-.179.454-4.474 11.148-12.837 13.666a15.7 15.7 0 01-4.566.718m-8.554-19.155a2.363 2.363 0 01-2.035-1.157c-.152-.257-3.717-6.381-.844-12.7 2.934-6.45 11.463-9.233 11.825-9.347a2.373 2.373 0 012.828 1.17c.206.4 4.983 9.843-.053 17.652a2.373 2.373 0 11-3.988-2.572c2.422-3.756 1.486-8.333.629-10.9-2.2 1.026-5.578 3.01-6.922 5.964-1.832 4.031.585 8.282.61 8.324a2.376 2.376 0 01-2.051 3.571m-85.753 19.148a18.494 18.494 0 005-.809 2.373 2.373 0 10-1.2-4.591h-.017a10.935 10.935 0 01-6.981.133c-4.246-1.278-7.279-5.927-8.761-8.712 2.962-1.024 8.322-2.4 12.57-.85 5.985 2.179 8.022 9.621 8.042 9.7a2.373 2.373 0 004.587-1.217c-.108-.4-2.719-9.922-11.006-12.938-8.054-2.933-18.02 1.688-18.441 1.886a2.373 2.373 0 00-1.2 3.016c.179.454 4.474 11.148 12.837 13.666a15.7 15.7 0 004.566.718m8.554-19.155a2.363 2.363 0 002.035-1.157c.152-.257 3.717-6.381.844-12.7-2.934-6.45-11.463-9.233-11.825-9.347a2.373 2.373 0 00-2.828 1.17c-.206.4-4.983 9.843.053 17.652a2.373 2.373 0 103.988-2.572c-2.422-3.756-1.486-8.333-.629-10.9 2.2 1.026 5.578 3.01 6.922 5.964 1.832 4.031-.585 8.282-.61 8.324a2.376 2.376 0 002.051 3.571" fill="#006230"/><path d="M159.256 169.416a.228.228 0 01.033-.143c.088-.138.618-.165 1.387-.361a11.175 11.175 0 001.934-.659 7.732 7.732 0 003.471-3.105 8.585 8.585 0 001.239-4.6 8.071 8.071 0 00-1.806-5.313 8.315 8.315 0 00-4.648-2.812 35.685 35.685 0 00-6.8-.419h-6.219a.353.353 0 00-.353.353v30.154a.353.353 0 00.353.353h3.651a.353.353 0 00.353-.353v-12.968a.353.353 0 01.353-.354h1.234a.355.355 0 01.292.154l9.179 13.367a.354.354 0 00.292.153h4.487a.356.356 0 00.283-.567l-.029-.042-.047-.068c-.02-.032-.042-.063-.064-.095l-.081-.118-.1-.142-.113-.164-.126-.185-.14-.206c-.052-.074-.1-.149-.153-.224s-.111-.161-.166-.242l-.177-.258-.187-.273-.2-.29-.207-.3-.214-.314-.223-.326-.229-.335-.236-.345-.241-.352-.245-.359-.249-.365-.253-.369-.254-.373-.257-.376-.257-.377-.257-.377-.257-.376-.255-.373-.253-.371-.251-.366-.246-.362-.242-.355-.238-.347-.231-.339-.224-.328-.217-.319-.21-.306-.2-.294-.191-.279-.18-.264c-.2-.29-.4-.58-.582-.877a1.174 1.174 0 01-.235-.448m-7.409-4.868v-7.9a.353.353 0 01.353-.353h4.133a12.28 12.28 0 014.068.47 3.733 3.733 0 011.778 1.466 4.046 4.046 0 01.683 2.3 4.238 4.238 0 01-.679 2.37 3.8 3.8 0 01-1.872 1.518 12.051 12.051 0 01-4.094.51l-4.02-.032a.353.353 0 01-.351-.353m37.511 4.871a.228.228 0 01.033-.143c.088-.138.617-.165 1.387-.361a11.175 11.175 0 001.934-.659 7.732 7.732 0 003.471-3.105 8.585 8.585 0 001.239-4.6 8.071 8.071 0 00-1.806-5.313 8.315 8.315 0 00-4.648-2.812 35.685 35.685 0 00-6.8-.419h-6.219a.353.353 0 00-.353.353v30.154a.353.353 0 00.353.353h3.651a.353.353 0 00.353-.353v-12.968a.353.353 0 01.353-.354h1.234a.355.355 0 01.292.154l9.179 13.367a.354.354 0 00.292.153h4.487a.356.356 0 00.283-.567l-.029-.042-.047-.068c-.02-.032-.042-.063-.064-.095l-.081-.118-.1-.142-.113-.164-.126-.185-.14-.206c-.052-.074-.1-.149-.153-.224s-.111-.161-.166-.242l-.177-.258-.187-.273-.2-.29-.207-.3-.214-.314-.223-.326-.229-.335-.236-.345-.241-.352-.245-.359-.249-.365-.253-.369-.254-.373-.257-.376-.257-.377-.257-.377-.257-.376-.255-.373-.253-.371-.251-.366-.246-.362-.242-.355-.238-.347-.231-.339-.224-.328-.217-.319-.21-.306-.2-.294-.191-.279-.18-.264c-.2-.29-.4-.58-.583-.877a1.187 1.187 0 01-.234-.448m-7.409-4.868v-7.9a.353.353 0 01.353-.353h4.132a12.283 12.283 0 014.069.47 3.733 3.733 0 011.778 1.466 4.046 4.046 0 01.683 2.3 4.238 4.238 0 01-.679 2.37 3.8 3.8 0 01-1.872 1.518 12.051 12.051 0 01-4.094.51l-4.02-.032a.353.353 0 01-.351-.353m-59.285 13.667v-9.449a.353.353 0 01.353-.353h11.38a.352.352 0 00.348-.29l.659-3.59a.353.353 0 00-.348-.417h-12.039a.353.353 0 01-.353-.354v-7.106a.353.353 0 01.353-.354h12.534a.353.353 0 00.347-.287l.682-3.589a.354.354 0 00-.348-.42h-17.571a.354.354 0 00-.354.354v30.153a.354.354 0 00.354.354h17.815a.354.354 0 00.354-.354v-3.59a.354.354 0 00-.354-.354h-13.459a.353.353 0 01-.353-.353m158.176-.001v-9.449a.353.353 0 01.353-.353h11.38a.352.352 0 00.348-.29l.659-3.59a.353.353 0 00-.348-.417h-12.039a.353.353 0 01-.353-.354v-7.106a.353.353 0 01.353-.354h12.534a.353.353 0 00.347-.287l.682-3.589a.354.354 0 00-.348-.42h-17.571a.354.354 0 00-.354.354v30.153a.354.354 0 00.354.354h17.815a.354.354 0 00.354-.354v-3.59a.354.354 0 00-.354-.354h-13.459a.353.353 0 01-.353-.353M50.045 160.465a8.448 8.448 0 00-4.722-1.358 9.871 9.871 0 00-4.782 1.2 10.871 10.871 0 00-2.087 1.492c-.229.206-.592.572-.592-.26v-1.514a.354.354 0 00-.354-.354H34a.353.353 0 00-.353.354v22.487a.353.353 0 00.353.353h3.509a.353.353 0 00.354-.353v-8.341a28.691 28.691 0 01.378-5.749 7.217 7.217 0 012.422-3.8 6.173 6.173 0 014.1-1.518 4.991 4.991 0 013.165.937 4.889 4.889 0 011.621 2.869 25.368 25.368 0 01.292 4.855v10.743a.353.353 0 00.353.353h3.51a.353.353 0 00.353-.353v-11.562a18.132 18.132 0 00-.958-6.826 8.112 8.112 0 00-3.054-3.654m15.132-8.875a3.008 3.008 0 000 4.259 3.009 3.009 0 005.135-2.119 2.936 2.936 0 00-.884-2.14 2.994 2.994 0 00-4.251 0m3.88 8.431h-3.509a.353.353 0 00-.354.353v22.136a.354.354 0 00.354.354h3.509a.353.353 0 00.353-.354v-22.136a.353.353 0 00-.353-.353m-45.286-.355H20.3a.353.353 0 00-.353.353v1.516c0 1.016-.351.463-.581.27a11.734 11.734 0 00-2.353-1.547 11.457 11.457 0 00-5.108-1.153 11.362 11.362 0 00-8.4 3.567A12.093 12.093 0 000 171.265a12.835 12.835 0 003.5 8.59 11.363 11.363 0 008.4 3.568 11.458 11.458 0 005.108-1.154 11.733 11.733 0 002.353-1.547c.23-.193.581-.668.581.27v1.516a.353.353 0 00.353.353h3.469a.353.353 0 00.354-.353V160.02a.353.353 0 00-.354-.353m-3.642 11.708a8.309 8.309 0 01-1.019 4.114 7.447 7.447 0 01-2.9 2.869 7.83 7.83 0 01-10.828-3.012 8.2 8.2 0 01-1.088-4.053v-.059a8.2 8.2 0 011.088-4.053 7.829 7.829 0 0110.835-3.009 7.438 7.438 0 012.9 2.868 8.309 8.309 0 011.019 4.114v.221m87.847-19.373H89.601a.354.354 0 00-.344.436l.861 3.594a.353.353 0 00.343.271h5.763a.353.353 0 01.354.354v25.852a.354.354 0 00.353.354h3.709a.355.355 0 00.355-.354v-25.852a.353.353 0 01.352-.354h5.767a.354.354 0 00.344-.271l.86-3.594a.353.353 0 00-.342-.436m121.805 30.86h4.064a.354.354 0 00.32-.5l-14.032-29.678a1.205 1.205 0 00-2.178 0l-14.032 29.673a.354.354 0 00.32.5h4.064a.353.353 0 00.32-.2l4.39-9.284a.353.353 0 01.32-.2h11.415a.354.354 0 01.32.2l4.39 9.284a.353.353 0 00.32.2m-14.417-14.45l3.36-7.106a.353.353 0 01.639 0l3.36 7.106a.354.354 0 01-.32.5h-6.72a.354.354 0 01-.32-.5m45.046 9.702a12.875 12.875 0 01-5.612 1.222 12.419 12.419 0 01-6.177-1.6 11.48 11.48 0 01-4.391-4.281 12.255 12.255 0 010-11.942 11.48 11.48 0 014.391-4.281 12.42 12.42 0 016.177-1.6 12.86 12.86 0 015.612 1.222 12.182 12.182 0 014.569 3.865.351.351 0 00.5.069l2.874-2.205a.353.353 0 00.078-.478 15.223 15.223 0 00-5.911-5.084 17.444 17.444 0 00-7.758-1.7 16.782 16.782 0 00-11.853 4.615 15.951 15.951 0 00-4.75 11.387v.338a15.949 15.949 0 004.75 11.386 16.778 16.778 0 0011.853 4.616 17.444 17.444 0 007.758-1.7 15.223 15.223 0 005.911-5.084.353.353 0 00-.078-.478l-2.874-2.205a.351.351 0 00-.5.069 12.182 12.182 0 01-4.569 3.865"/></svg>