<svg xmlns="http://www.w3.org/2000/svg" width="247.527" height="40"><defs><clipPath id="a"><path fill="none" d="M0 0h247.527v40H0z"/></clipPath></defs><g clip-path="url(#a)"><path d="M28.164 28.913a10.159 10.159 0 01-5.887 1.764c-6.644 0-10.417-5.382-10.417-10.684S15.633 9.306 22.277 9.306a10.185 10.185 0 015.887 1.766A22.963 22.963 0 0134.3 3.124 23.857 23.857 0 0022.277 0C9.192 0 0 9.451 0 19.994S9.192 40 22.277 40A23.726 23.726 0 0034.3 36.861a22.675 22.675 0 01-6.139-7.949" fill="#8abb2a"/><path d="M50.864 30.677a9.956 9.956 0 01-7.811-3.48 11.205 11.205 0 010-14.4 9.929 9.929 0 017.811-3.491c6.636 0 10.422 5.375 10.422 10.687s-3.782 10.684-10.422 10.684m0-30.676a23.513 23.513 0 00-14.3 4.59 20.314 20.314 0 00-6.475 8.21 17.992 17.992 0 000 14.4 20.358 20.358 0 006.475 8.2 23.538 23.538 0 0014.3 4.6c13.08 0 22.265-9.479 22.265-20.006C73.133 9.451 63.948.001 50.864.001" fill="#8abb2a"/><path d="M85.947 15.973c-2.186 0-2.53 1.11-2.53 1.775 0 .786.93 1.2 1.727 1.2a4.367 4.367 0 002.617-1.083 11.136 11.136 0 01-.186-1.9zm7.479 4.088l-2.954 1.4a7.234 7.234 0 01-1.512-1.355 5.755 5.755 0 01-3.938 1.451c-2.588 0-5.175-1.574-5.175-3.812 0-2.439 2.769-3.941 6.1-3.941h1.629c0-1.054-.771-1.719-2.246-1.719a5.6 5.6 0 00-2.492.587l-1.262-2.234a7.54 7.54 0 013.755-.938c3.818 0 5.76 1.943 5.76 4.428v2.384a4.14 4.14 0 002.335 3.749m-1.39-9.055l2.959-1.4a10.826 10.826 0 011.787 1.675 8.5 8.5 0 014.679-1.824c2.528 0 4.744 1.432 4.744 3.523v8.215h-3.514v-6.892c0-.91-.182-1.894-1.721-1.894-1.881 0-3.081 2.117-3.081 2.117v6.664h-3.512v-6.444a4.135 4.135 0 00-2.341-3.74m58.787-1.553c2.346 0 4.4 1.38 4.4 3.474v8.264h-3.341v-6.94c0-.833 0-1.841-1.352-1.841-1.411 0-2.639 1.94-2.639 1.94v6.84h-3.342v-6.939c0-.833 0-1.841-1.352-1.841-1.4 0-2.635 1.94-2.635 1.94v6.84h-3.341v-6.443a4.168 4.168 0 00-2.229-3.741l2.814-1.4a7.457 7.457 0 011.7 1.7s2.078-1.851 3.988-1.851a4.181 4.181 0 013.43 1.774s1.991-1.774 3.9-1.774m-42.402 2.456h3.563v9.286h-3.563zm1.806-5.35a1.931 1.931 0 101.927 1.93 1.93 1.93 0 00-1.927-1.93" fill="#006836"/><path d="M85.947 15.973c-2.186 0-2.53 1.11-2.53 1.775 0 .786.921 1.2 1.727 1.2a4.367 4.367 0 002.617-1.083 11.136 11.136 0 01-.186-1.9zm7.479 4.088l-2.954 1.4a7.234 7.234 0 01-1.512-1.355 5.755 5.755 0 01-3.938 1.451c-2.588 0-5.175-1.574-5.175-3.812 0-2.439 2.769-3.941 6.1-3.941h1.629c0-1.054-.771-1.719-2.246-1.719a5.6 5.6 0 00-2.492.587l-1.262-2.234a7.54 7.54 0 013.755-.938c3.818 0 5.76 1.943 5.76 4.428v2.384a4.14 4.14 0 002.335 3.749m-1.39-9.055l2.959-1.4a10.826 10.826 0 011.787 1.675 8.5 8.5 0 014.679-1.824c2.528 0 4.744 1.432 4.744 3.523v8.215h-3.514v-6.892c0-.91-.182-1.894-1.721-1.894-1.881 0-3.081 2.117-3.081 2.117v6.664h-3.512v-6.444a4.135 4.135 0 00-2.341-3.74m58.787-1.553c2.346 0 4.4 1.38 4.4 3.474v8.264h-3.341v-6.94c0-.833 0-1.841-1.349-1.841-1.411 0-2.639 1.94-2.639 1.94v6.84h-3.342v-6.939c0-.833 0-1.841-1.352-1.841-1.4 0-2.635 1.94-2.635 1.94v6.84h-3.341v-6.443a4.168 4.168 0 00-2.229-3.741l2.812-1.4a7.439 7.439 0 011.7 1.7s2.078-1.851 3.988-1.851a4.186 4.186 0 013.43 1.774s1.991-1.774 3.9-1.774m-42.403 2.456h3.563v9.286h-3.563zm1.806-5.35a1.931 1.931 0 101.927 1.93 1.93 1.93 0 00-1.927-1.93m11.779 11.484a3.057 3.057 0 01-1.774.532 3.222 3.222 0 010-6.441 3.064 3.064 0 011.774.533 6.916 6.916 0 011.852-2.4 7.185 7.185 0 00-3.626-.941c-3.942 0-6.714 2.847-6.714 6.025s2.771 6.031 6.714 6.031a7.152 7.152 0 003.626-.947 6.84 6.84 0 01-1.852-2.4" fill="#006836"/><path d="M128.851 18.578a3 3 0 01-2.355-1.045 3.376 3.376 0 010-4.339 2.992 2.992 0 012.355-1.054 3.222 3.222 0 010 6.441m0-9.246a7.083 7.083 0 00-4.31 1.383 6.114 6.114 0 00-1.955 2.476 5.421 5.421 0 000 4.339 6.118 6.118 0 001.955 2.47 7.088 7.088 0 004.31 1.389c3.942 0 6.711-2.86 6.711-6.032s-2.769-6.025-6.711-6.025m-44.92 18.706a3.1 3.1 0 00-.031.591 4.227 4.227 0 01-.778 2.753 4.383 4.383 0 01-1.991 1.377 2.376 2.376 0 00-.513-.739 3.771 3.771 0 001.384-.684c.8-.645 1.074-1.361 1.074-2.862a1.781 1.781 0 00-.031-.436zm3.119-.988a1.7 1.7 0 00-.2.334 4.811 4.811 0 01-2.24 2.333 2.092 2.092 0 00-.575-.6 3.487 3.487 0 001.175-.731 3.41 3.41 0 00.785-1.042h-4.207a8.451 8.451 0 00-1 .039v-.824a6.666 6.666 0 001.011.054h4.107a1.948 1.948 0 00.715-.062zm.404 3.83a6.661 6.661 0 001.112.062h4.093a8.021 8.021 0 001.151-.054v.879a13.508 13.508 0 00-1.143-.039h-4.114a10.029 10.029 0 00-1.1.039zm.785-3.749a6.262 6.262 0 001.081.054h2.66a5.7 5.7 0 001.05-.054v.879a8.961 8.961 0 00-1.034-.039h-2.691a8.991 8.991 0 00-1.065.039zm7.821 4.835a7.042 7.042 0 00-.988.039v-.855a5.229 5.229 0 001 .054h3.515v-3.538h-3.368a8.246 8.246 0 00-1.034.039v-.855a5.458 5.458 0 001.042.054h3.554c.389 0 .389 0 .653-.016-.016.218-.016.3-.016.63v4.083a6.2 6.2 0 00.039.832h-.871v-.467zm9.148-5.554a2.4 2.4 0 00-.2.544 46.21 46.21 0 01-1.571 4.5 31.814 31.814 0 003.454-.436 15.87 15.87 0 00-1.151-1.983l.731-.288a18.652 18.652 0 011.9 3.554l-.778.412a7.525 7.525 0 00-.4-1 2.543 2.543 0 00-.273.054c-.855.179-2.123.342-4.449.568a4.291 4.291 0 00-.7.093l-.109-.887a1.629 1.629 0 00.187.008c.156 0 .241-.008.692-.031a34.42 34.42 0 001.143-3.111 13.769 13.769 0 00.584-2.193zm5.685 1.408a6.75 6.75 0 01-.824 1.034 2.437 2.437 0 00-.56-.482 4.432 4.432 0 001.011-1.291 3.738 3.738 0 00.381-1.05l.755.179a2.76 2.76 0 00-.148.358 6.158 6.158 0 01-.257.591h1.244v-.49a4.339 4.339 0 00-.047-.731h.817a4.182 4.182 0 00-.047.731v.49h1.719a5.425 5.425 0 00.8-.047v.755a5.624 5.624 0 00-.8-.047h-1.719v1.205h2.267a5.913 5.913 0 00.84-.047v.762a6.279 6.279 0 00-.84-.047h-1.548v2.357c0 .179.1.21.646.21.6 0 .778-.047.864-.21a2.36 2.36 0 00.14-.98v-.163a2.657 2.657 0 00.716.264 3.011 3.011 0 01-.288 1.353.769.769 0 01-.505.342 5.7 5.7 0 01-1.019.07c-1.011 0-1.244-.109-1.244-.591v-2.651h-.988a4.354 4.354 0 01-.241 1.385 3.038 3.038 0 01-1.245 1.493 5.361 5.361 0 01-1.089.537 2.728 2.728 0 00-.428-.661 3.385 3.385 0 001.688-.972 2.249 2.249 0 00.544-1.182c.016-.132.031-.272.047-.6h-1.28a6.365 6.365 0 00-.84.047v-.762a5.992 5.992 0 00.84.047h2.24v-1.206zm6.571 1.082a3.383 3.383 0 00.614.039h.506a3.48 3.48 0 00.591-.039 7.854 7.854 0 00-.031.84v1.579a1.136 1.136 0 00.614.63 4.247 4.247 0 001.735.226 21.845 21.845 0 003.181-.163 3.312 3.312 0 00-.21.778c-.731.031-1.664.047-2.543.047a5.479 5.479 0 01-2.356-.264 1.851 1.851 0 01-.754-.669 7.068 7.068 0 01-.926.778 4.138 4.138 0 00-.257.218l-.334-.731a4.97 4.97 0 001.175-.84v-1.76h-.459a2.809 2.809 0 00-.544.039zm.622-2.847a9.335 9.335 0 011.307 1.392l-.544.513a7.28 7.28 0 00-1.276-1.439zm4.534 4.861h1.019a4.685 4.685 0 00.77-.039v.677a5.45 5.45 0 00-.762-.039h-3.017a5.272 5.272 0 00-.669.031 7.12 7.12 0 00.031-.785v-2c0-.194 0-.35.016-.544a3.663 3.663 0 01-.544.669 2.011 2.011 0 00-.443-.544 5.371 5.371 0 001.5-2.123 1.956 1.956 0 00.1-.327l.739.148c-.047.094-.047.094-.156.343a9.734 9.734 0 01-.334.638h1.1a4.637 4.637 0 00.514-1.089l.715.14a3.421 3.421 0 00-.2.381 5.281 5.281 0 01-.327.568h.9a6.121 6.121 0 00.754-.039v.669a5.434 5.434 0 00-.669-.031h-1.042v.684h.7a6.038 6.038 0 00.778-.031v.638a6.36 6.36 0 00-.778-.031h-.7v.685h.7a5.96 5.96 0 00.778-.031v.638a6.28 6.28 0 00-.778-.031h-.7zm-.654-3.3h-1.306v.684h1.306zm0 1.26h-1.306v.684h1.306zm-1.306 2.038h1.306v-.778h-1.306zm11.971 1.838a4.486 4.486 0 00-.816-.055h-5.188v.335h-.762a7.087 7.087 0 00.047-.887v-5.164c0-.335-.008-.56-.031-.824a6.129 6.129 0 00.832.039h4.962a5.107 5.107 0 00.825-.054v.739a4.979 4.979 0 00-.809-.047h-5.063v5.219h5.188a5.546 5.546 0 00.816-.047zm-2.551-2.979a2.306 2.306 0 00.879.895 4.121 4.121 0 001.478.5 2.437 2.437 0 00-.342.685 5.025 5.025 0 01-1.6-.716 2.91 2.91 0 01-.894-1 2.549 2.549 0 01-.848 1.011 4.674 4.674 0 01-1.423.692 1.917 1.917 0 00-.4-.622 3.878 3.878 0 001.493-.661 1.93 1.93 0 00.638-.786h-1.23a5.6 5.6 0 00-.824.039v-.692a5.532 5.532 0 00.832.039h1.354a7.54 7.54 0 00.062-.91h-1.089a6.082 6.082 0 01-.638.747 2.059 2.059 0 00-.56-.42 3.493 3.493 0 001.206-1.7l.669.2a2.382 2.382 0 00-.117.241c-.07.132-.109.218-.171.319h2.644a4.7 4.7 0 00.762-.039v.685a5.484 5.484 0 00-.755-.039h-1.26a2.134 2.134 0 00-.008.256c-.016.234-.023.4-.054.654h1.8a3.859 3.859 0 00.747-.047v.7a5.166 5.166 0 00-.77-.039zm9.992.808a5.379 5.379 0 00.024.7 5.553 5.553 0 00-.661-.031h-.957v1.19c0 .436-.2.583-.825.583a8.151 8.151 0 01-.855-.039 1.719 1.719 0 00-.163-.653 4.892 4.892 0 00.848.086c.272 0 .311-.023.311-.187v-.98h-.832a5.948 5.948 0 00-.716.031c.016-.21.023-.319.023-.692v-.84c-.148.1-.171.109-.443.28a2.425 2.425 0 00-.3-.482 7.024 7.024 0 01-.327 2.007 4.292 4.292 0 01-.747 1.431 2.239 2.239 0 00-.537-.513 3.905 3.905 0 00.933-2.45 8.7 8.7 0 01-.793.459c-.039.023-.1.062-.156.093l-.225-.692a4.307 4.307 0 001.213-.529l.008-1.081a17.227 17.227 0 00-.039-1.913 7.891 7.891 0 00.925.039h1.618v-.07a2.22 2.22 0 00-.039-.482h.809a2.1 2.1 0 00-.047.482v.07h1.921a6.879 6.879 0 00.918-.047v.669a6.534 6.534 0 00-.848-.039h-4.55v1.221c0 .381-.008.7-.039 1.275a4.253 4.253 0 00.817-.482 3.477 3.477 0 00-.607-.513l.4-.342a6.943 6.943 0 01.6.513 3.553 3.553 0 00.5-.607h-.8a5.288 5.288 0 00-.692.031v-.638a5.546 5.546 0 00.716.031h1.05a1.837 1.837 0 00.085-.366l.739.062c-.062.124-.086.163-.148.3h1.882a5.542 5.542 0 00.786-.039v.653a4.994 4.994 0 00-.762-.039h-1.128a2.741 2.741 0 00.638.669 2.652 2.652 0 00.583-.607l.529.327a8.121 8.121 0 01-.669.583 4.305 4.305 0 001.066.444 2.479 2.479 0 00-.3.614 5.585 5.585 0 01-.747-.366zm-5.817-3.375a6.892 6.892 0 01.591 1.4l-.521.334a6.583 6.583 0 00-.568-1.454zm2.776 4.379a4.786 4.786 0 01-1.408 1.361 2.122 2.122 0 00-.459-.482 3.23 3.23 0 001.291-1.2zm-.132-1.765h2.543v-.42h-2.543zm0 .925h2.543v-.435h-2.543zm2.069-1.867a4.1 4.1 0 01-.661-.832h-.412a4.6 4.6 0 01-.614.832zm.568 2.388a4.422 4.422 0 001.431 1.12 2.959 2.959 0 00-.4.56 5.518 5.518 0 01-1.548-1.33zm3.407-4.418a4.081 4.081 0 00-.661.039v-.708a4.8 4.8 0 00.723.047h1.33a3.731 3.731 0 00.708-.047v.7a5.491 5.491 0 00-.653-.031h-.435a6.9 6.9 0 01-.506 1.8h.957a3.447 3.447 0 00.467-.023c-.016.187-.016.288-.016.591v2.567a4.645 4.645 0 00.023.622h-.661v-.366h-.785v.786h-.708a5.236 5.236 0 00.047-.778v-1.543c0-.28 0-.451.023-.8a3.36 3.36 0 01-.529.817 2.1 2.1 0 00-.3-.762 4.58 4.58 0 001.019-1.789 5.121 5.121 0 00.264-1.12zm.482 4.589h.8v-2.2h-.8zm2.6-2.769v-1.835a4.519 4.519 0 00-.715.039v-.716a4.929 4.929 0 00.832.047h2.326a5.8 5.8 0 00.817-.047v.716a5.11 5.11 0 00-.77-.039h-.07v1.967h.14a5.036 5.036 0 00.778-.039v.739a5.232 5.232 0 00-.778-.039h-.14v2.644a8.8 8.8 0 00.047.91h-.793a6.894 6.894 0 00.054-.91v-2.643h-1.05a7.692 7.692 0 01-.233 1.711 4.6 4.6 0 01-.972 1.921 1.721 1.721 0 00-.622-.475 3.979 3.979 0 00.95-1.773 6.479 6.479 0 00.179-1.384h-.079a5.181 5.181 0 00-.77.039v-.739a4.924 4.924 0 00.77.039h.1zm1.727.132v-1.967h-1.034v1.967zm6.733.949a6.393 6.393 0 00.848-.039 5.272 5.272 0 00-.031.7l-.031 1.555c-.008.21.07.249.5.249.552 0 .661-.031.715-.179a5.22 5.22 0 00.117-1.19 2.445 2.445 0 00.684.233c-.124 1.735-.163 1.781-1.548 1.781-.941 0-1.159-.125-1.159-.685v-.039l.023-1.742h-1.276a2.9 2.9 0 01-.77 1.439 5.256 5.256 0 01-1.976 1.2 2.1 2.1 0 00-.443-.637 4.967 4.967 0 001.874-.972 2.111 2.111 0 00.607-1.027h-1.135a4.723 4.723 0 00-.856.047v-.739a5.653 5.653 0 00.84.047h1.283c.023-.287.039-.4.039-.552a4.1 4.1 0 00-.031-.435l.785.008a3.885 3.885 0 00-.062.575 3.642 3.642 0 01-.039.4zm-1.252-3.29a2.62 2.62 0 00-.047-.529h.8a2.459 2.459 0 00-.039.529v.2h2.225a7.2 7.2 0 00.832-.039 3.7 3.7 0 00-.031.56v.49a4.021 4.021 0 00.031.568h-.544c-.1.739-.226.8-1.516.8-.809 0-1.019-.109-1.019-.513v-1.23h-.77a2.241 2.241 0 01-.358.949 2.175 2.175 0 01-1.19.871c-.187.07-.342.117-.747.233a3.777 3.777 0 00-.4-.6 2.934 2.934 0 001.556-.583 1.3 1.3 0 00.428-.871h-1.439v.941h-.714a3.952 3.952 0 00.039-.568v-.482a3.886 3.886 0 00-.031-.56 6.9 6.9 0 00.824.039h2.108zm3.057.832h-1.7v.957c0 .187.054.2.622.2s.607-.047.622-.645a1.665 1.665 0 00.459.14zm5.093 2.302a5.8 5.8 0 00.024.607 1.484 1.484 0 00-.218-.016h-.156l-.366-.008h-1.353a5.559 5.559 0 01-.7 2.784 2.021 2.021 0 00-.583-.49c.505-.84.645-1.664.645-3.788a9.157 9.157 0 00-.039-1.065 8.132 8.132 0 00.817.031h1.19a6.833 6.833 0 00.762-.031 6.91 6.91 0 00-.024.653zm-3.072-3.352a4.316 4.316 0 00.8.047h1.75a4.612 4.612 0 00.793-.039v.73a4.621 4.621 0 00-.77-.039h-1.8a5.3 5.3 0 00-.77.039zm2.4 3.321v-1.306h-1.377v.669c0 .311 0 .4-.008.638zm1.944-.614a7.871 7.871 0 01-.366 2.256 4.474 4.474 0 01-1.159 1.789 2.057 2.057 0 00-.544-.529c1.136-1.065 1.392-1.96 1.392-4.884a9.514 9.514 0 00-.031-.965 7.278 7.278 0 002.87-.677l.4.654a3.115 3.115 0 00-.342.1 11.638 11.638 0 01-2.2.513v1.074h1.875a3.861 3.861 0 00.738-.047v.754a4.493 4.493 0 00-.692-.039h-.179v3.189a4.638 4.638 0 00.047.824h-.778a5.8 5.8 0 00.047-.832v-3.18zm6.761-1.058a4.941 4.941 0 01-.459.9 2.434 2.434 0 00-.537-.42 4.637 4.637 0 00.731-1.711 2.438 2.438 0 00.062-.436l.669.171a4.876 4.876 0 00-.132.474c-.047.163-.07.241-.109.381h.747v-.622a4.313 4.313 0 00-.047-.716h.762a4.189 4.189 0 00-.047.716v.622h1a5.111 5.111 0 00.8-.047v.723a7.11 7.11 0 00-.8-.039h-1v1.1h1.245a5.965 5.965 0 00.81-.042v.739a8.569 8.569 0 00-.809-.039h-1.019a5.583 5.583 0 002.03 2.061 2.807 2.807 0 00-.459.661 6.276 6.276 0 01-1.828-2.116c.016.288.031.56.031.8v1.151a5.407 5.407 0 00.047.871h-.762a6.866 6.866 0 00.047-.879v-1.1c0-.226.008-.505.023-.824a5.71 5.71 0 01-1.913 2.131 2.932 2.932 0 00-.427-.607 5.28 5.28 0 002.061-2.147h-.661a6.068 6.068 0 00-.817.047v-.272a2.373 2.373 0 00-.327.591 4.577 4.577 0 01-.521-1.12c0 .117.008.2.008.264.008.1.016.4.031.887v2.084a6.033 6.033 0 00.047.934h-.754a7.318 7.318 0 00.047-.934v-1.9c0-.389.008-.591.047-1.12a6.409 6.409 0 01-.9 2.077 2.549 2.549 0 00-.334-.7 6.786 6.786 0 001.112-2.466h-.366a3.026 3.026 0 00-.529.031v-.684a3.027 3.027 0 00.529.031h.436v-.684a4.9 4.9 0 00-.039-.8h.747a5.262 5.262 0 00-.039.794v.692h.241a2.494 2.494 0 00.459-.031v.677a3.917 3.917 0 00-.444-.023h-.233a4.76 4.76 0 00.785 1.384v-.461a5.93 5.93 0 00.817.047h.918v-1.1zm10.865-.567a4.455 4.455 0 00.754-.047v.741a6.446 6.446 0 00-.863-.047h-1.244a9.2 9.2 0 00.552 3.041 2.72 2.72 0 00.537.91.534.534 0 00.21.14c.124 0 .233-.4.342-1.221a1.873 1.873 0 00.63.381c-.195 1.167-.482 1.688-.941 1.688a1.486 1.486 0 01-1-.739 8.091 8.091 0 01-1.042-4.2h-3.173a7.524 7.524 0 00-.864.047v-.739a6.536 6.536 0 00.864.047h3.15c-.023-.785-.031-.856-.031-.9 0-.07-.016-.21-.039-.4h.8c-.016.093-.039.49-.039.607s.008.49.016.7zm-5.053 2.333a6.861 6.861 0 00-.746.039v-.7a6.16 6.16 0 00.762.039h1.936a4.774 4.774 0 00.747-.039v.7a6.716 6.716 0 00-.739-.039h-.638v1.9c.381-.062.638-.124 1.649-.381v.661a44.345 44.345 0 01-3.608.762 1.907 1.907 0 00-.242.047l-.132-.754a9.552 9.552 0 001.618-.2v-2.03zm4.783-2.388a4.612 4.612 0 00-.848-.91l.529-.319a6.526 6.526 0 01.864.879zm3.326 1.089a7.623 7.623 0 01-1.306.731 2.2 2.2 0 00-.4-.653 6.773 6.773 0 003.228-2.489h.77a5.052 5.052 0 001.307 1.33 8.161 8.161 0 002.061 1.128 2.844 2.844 0 00-.381.723 9.143 9.143 0 01-1.392-.778v.63a5.71 5.71 0 00-.684-.031h-2.559a5.473 5.473 0 00-.638.031zm-.467 2.03a6.989 6.989 0 00-.9.047v-.762a7.186 7.186 0 00.9.047h4.822a6.933 6.933 0 00.9-.047v.762a7.16 7.16 0 00-.9-.047h-2.722a10.81 10.81 0 01-.879 1.649c1.82-.14 1.82-.14 2.7-.241a14.89 14.89 0 00-.848-.887l.6-.319a16.22 16.22 0 011.828 2.061l-.615.428a10.542 10.542 0 00-.5-.715 68.192 68.192 0 01-3.928.4 10.607 10.607 0 00-1.128.117l-.117-.793c.171.008.327.016.435.016.062 0 .179-.008.358-.016.07 0 .07 0 .381-.016a9.8 9.8 0 00.894-1.688zm3.663-2.107c.226 0 .381-.008.544-.016a6.853 6.853 0 01-1.82-1.688 7.186 7.186 0 01-1.781 1.688 4.845 4.845 0 00.505.016zm4.892 3.981a5.272 5.272 0 00.039.786h-.785a5.509 5.509 0 00.047-.794v-2.154a6.662 6.662 0 01-.956.778 2.291 2.291 0 00-.35-.653 5.751 5.751 0 001.385-1.12 5 5 0 00.871-1.275h-1.338a5.281 5.281 0 00-.646.031v-.724a4.994 4.994 0 00.615.031h.42v-.684a3.505 3.505 0 00-.047-.591h.793a3.317 3.317 0 00-.047.607v.669h.373a2.831 2.831 0 00.451-.023l.319.35a2.329 2.329 0 00-.171.311 6.463 6.463 0 01-.817 1.345 4.756 4.756 0 001.244 1.019 2.637 2.637 0 00-.358.63 4.574 4.574 0 01-1.042-.918zm3.259-.272h1.05a6.178 6.178 0 00.871-.047v.809a5.826 5.826 0 00-.871-.054h-2.706a5.651 5.651 0 00-.864.054v-.809a6.413 6.413 0 00.871.047h.933V28.85h-.654c-.28 0-.529.016-.77.039v-.762a5.006 5.006 0 00.77.047h.654v-1.495a5.079 5.079 0 00-.054-.77h.824a4.177 4.177 0 00-.054.77v1.493h.9a4.825 4.825 0 00.762-.047v.762a7.768 7.768 0 00-.762-.039h-.9zM179.445 9.51c2.346 0 4.4 1.38 4.4 3.474v8.264h-3.341v-6.94c0-.833 0-1.841-1.349-1.841-1.411 0-2.639 1.94-2.639 1.94v6.84h-3.342v-6.939c0-.833 0-1.841-1.352-1.841-1.4 0-2.635 1.94-2.635 1.94v6.84h-3.341v-6.443a4.168 4.168 0 00-2.229-3.741l2.812-1.4a7.44 7.44 0 011.7 1.7s2.078-1.851 3.988-1.851a4.186 4.186 0 013.431 1.774s1.991-1.774 3.9-1.774m11.944 9.578a4.663 4.663 0 003.093-1.128l1.971 1.569a7.331 7.331 0 01-5.364 2.033c-4.185 0-6.247-2.868-6.247-5.957 0-3.187 2.669-5.957 6.611-5.957 2.76 0 5.156 1.3 5.156 3.285 0 2.745-3.578 4.143-8.219 4.069a2.806 2.806 0 003 2.084m2.093-5.957c0-.662-.758-1.152-1.941-1.152a3.292 3.292 0 00-3.276 2.868c3.7-.147 5.217-.784 5.217-1.716m16.256 8.46a6.211 6.211 0 01-1.759-1.716 5.893 5.893 0 01-4.428 1.691c-4.034 0-6.4-2.794-6.4-5.957s2.365-5.957 6.4-5.957a5.676 5.676 0 013.336 1.152V4.333h3.458v12.085a4.123 4.123 0 002.3 3.726zm-5.974-9.389a3.2 3.2 0 00-3.094 3.407 3.122 3.122 0 106.217 0 3.205 3.205 0 00-3.124-3.407m21.033 9.4a6 6 0 110-11.985 6.268 6.268 0 015.05 2.121l-2.09 1.676a3.339 3.339 0 00-2.64-1.232 3.16 3.16 0 00-3.22 3.427 3.161 3.161 0 003.221 3.428 3.3 3.3 0 002.64-1.233l2.09 1.677a6.269 6.269 0 01-5.05 2.121m11.211-5.447c-2.186 0-2.53 1.11-2.53 1.775 0 .786.921 1.2 1.727 1.2a4.367 4.367 0 002.618-1.083 11.131 11.131 0 01-.186-1.9zm7.481 4.087l-2.954 1.4a7.224 7.224 0 01-1.512-1.355 5.755 5.755 0 01-3.938 1.451c-2.588 0-5.175-1.574-5.175-3.812 0-2.439 2.769-3.941 6.1-3.941h1.629c0-1.054-.77-1.719-2.246-1.719a5.6 5.6 0 00-2.492.587l-1.262-2.235a7.539 7.539 0 013.755-.938c3.818 0 5.76 1.943 5.76 4.428v2.389a4.14 4.14 0 002.338 3.745m.573-15.909h3.457v16.914h-3.457zm-30.733 7.628h3.563v9.286h-3.563zm1.806-5.353a1.931 1.931 0 101.927 1.93 1.93 1.93 0 00-1.927-1.93" fill="#006836"/></g></svg>