<svg xmlns="http://www.w3.org/2000/svg" width="125.387" height="14"><path d="M67.692 7.952a.094.094 0 01.014-.061c.037-.059.264-.07.593-.153a4.422 4.422 0 00.827-.28 3.3 3.3 0 001.486-1.319 3.629 3.629 0 00.53-1.955 3.413 3.413 0 00-.773-2.257A3.563 3.563 0 0068.38.732a15.383 15.383 0 00-2.912-.178h-2.66a.151.151 0 00-.151.151v12.809a.151.151 0 00.151.15h1.562a.151.151 0 00.151-.15V8.006a.15.15 0 01.151-.15h.528a.152.152 0 01.125.065l3.927 5.678a.152.152 0 00.125.065h1.921a.151.151 0 00.121-.241l-.012-.018-.02-.029-.028-.04-.034-.05-.041-.061-.048-.069-.054-.079-.06-.087-.065-.1-.071-.1-.075-.11-.08-.116-.084-.123-.089-.128-.092-.133-.1-.138-.1-.143-.1-.146-.1-.15-.108-.151-.106-.155-.108-.157-.109-.158-.11-.159-.11-.16-.11-.16-.11-.159-.109-.159-.108-.157-.107-.156-.105-.153-.1-.151-.1-.147-.1-.144-.1-.139-.093-.135-.089-.13-.086-.124-.082-.119-.077-.112a12.111 12.111 0 01-.25-.373.494.494 0 01-.1-.19m-3.17-2.068V2.53a.151.151 0 01.151-.15h1.768a5.3 5.3 0 011.741.2 1.6 1.6 0 01.76.623 1.709 1.709 0 01.293.977 1.8 1.8 0 01-.291 1.007 1.629 1.629 0 01-.8.644 5.192 5.192 0 01-1.752.217l-1.72-.013a.15.15 0 01-.15-.15m15.96 2.067a.094.094 0 01.014-.061c.037-.059.264-.07.593-.153a4.422 4.422 0 00.827-.28 3.3 3.3 0 001.486-1.319 3.629 3.629 0 00.53-1.955 3.413 3.413 0 00-.773-2.257A3.564 3.564 0 0081.167.732a15.383 15.383 0 00-2.912-.178h-2.661a.151.151 0 00-.151.151v12.809a.151.151 0 00.151.15h1.562a.151.151 0 00.151-.15V8.006a.15.15 0 01.151-.15h.528a.152.152 0 01.125.065l3.927 5.678a.152.152 0 00.125.065h1.924a.151.151 0 00.121-.241l-.012-.018-.02-.029-.028-.04-.034-.05-.041-.061-.048-.069-.054-.079-.06-.087-.065-.1-.071-.1-.075-.11-.08-.116-.084-.123-.089-.128-.092-.133-.1-.138-.1-.143-.1-.146-.1-.15-.1-.153-.107-.155-.108-.157-.109-.158-.11-.159-.11-.16-.11-.16-.11-.159-.109-.159-.108-.157-.107-.156-.105-.153-.1-.151-.1-.147-.1-.144-.1-.139-.093-.135-.089-.13-.086-.124-.082-.119-.077-.112a12.111 12.111 0 01-.25-.373.494.494 0 01-.1-.19m-3.17-2.068V2.53a.151.151 0 01.151-.15h1.768a5.3 5.3 0 011.741.2 1.6 1.6 0 01.76.623 1.709 1.709 0 01.293.977 1.8 1.8 0 01-.291 1.007 1.63 1.63 0 01-.8.644 5.192 5.192 0 01-1.752.217l-1.72-.013a.15.15 0 01-.15-.15m-25.187 5.804V7.675a.151.151 0 01.151-.15h4.869a.151.151 0 00.149-.123l.281-1.525a.15.15 0 00-.149-.177h-5.15a.151.151 0 01-.151-.15V2.531a.151.151 0 01.151-.15h5.363a.151.151 0 00.149-.122l.292-1.525a.15.15 0 00-.149-.178h-7.519a.15.15 0 00-.151.15v12.808a.151.151 0 00.151.151h7.623a.151.151 0 00.152-.151v-1.525a.151.151 0 00-.152-.15h-5.759a.151.151 0 01-.151-.15m67.197 0V7.675a.151.151 0 01.151-.15h4.869a.151.151 0 00.149-.123l.281-1.525a.15.15 0 00-.149-.177h-5.15a.151.151 0 01-.151-.15V2.531a.151.151 0 01.151-.15h5.363a.151.151 0 00.149-.122l.292-1.525a.15.15 0 00-.149-.178h-7.519a.15.15 0 00-.151.15v12.808a.151.151 0 00.151.151h7.623a.151.151 0 00.152-.151v-1.525a.151.151 0 00-.152-.15h-5.759a.151.151 0 01-.151-.15M21.413 4.081a3.615 3.615 0 00-2.02-.582 4.229 4.229 0 00-2.046.513 4.678 4.678 0 00-.893.638c-.1.088-.253.245-.253-.111v-.645a.152.152 0 00-.152-.151h-1.5a.151.151 0 00-.151.151v9.622a.151.151 0 00.151.151h1.5a.151.151 0 00.152-.151V9.944a12.28 12.28 0 01.162-2.46 3.087 3.087 0 011.036-1.625 2.64 2.64 0 011.755-.65 2.133 2.133 0 011.354.4 2.091 2.091 0 01.694 1.227 10.843 10.843 0 01.125 2.078v4.6a.151.151 0 00.151.151h1.5a.151.151 0 00.151-.151v-4.95a7.757 7.757 0 00-.41-2.92 3.469 3.469 0 00-1.307-1.564M27.701.379a1.287 1.287 0 000 1.823 1.288 1.288 0 002.2-.907 1.255 1.255 0 00-.378-.915 1.281 1.281 0 00-1.819 0m1.656 3.51h-1.5a.151.151 0 00-.151.151v9.471a.151.151 0 00.151.151h1.5a.151.151 0 00.151-.151v-9.47a.151.151 0 00-.151-.151m-19.189-.152H8.687a.152.152 0 00-.152.151v.649c0 .434-.15.2-.248.115a5.055 5.055 0 00-1.008-.66 5.031 5.031 0 00-5.781 1.033 5.173 5.173 0 00-1.5 3.676 5.491 5.491 0 001.5 3.676 5.029 5.029 0 005.781 1.031 5.034 5.034 0 001.007-.662c.1-.082.248-.286.248.116v.649a.151.151 0 00.152.151h1.484a.151.151 0 00.151-.151V3.894a.151.151 0 00-.151-.151m-1.559 5.01a3.559 3.559 0 01-.436 1.76 3.187 3.187 0 01-1.241 1.227 3.35 3.35 0 01-4.636-1.288 3.511 3.511 0 01-.466-1.734v-.026a3.51 3.51 0 01.466-1.734A3.349 3.349 0 016.934 5.67a3.191 3.191 0 011.245 1.224 3.556 3.556 0 01.436 1.76v.094M45.933.556h-7.862a.15.15 0 00-.147.185l.368 1.526a.151.151 0 00.147.115h2.466a.151.151 0 01.151.15v10.983a.151.151 0 00.151.15h1.587a.151.151 0 00.151-.15V2.533a.151.151 0 01.151-.15h2.468a.151.151 0 00.147-.115l.368-1.526a.151.151 0 00-.147-.185m51.74 13.108h1.739a.151.151 0 00.137-.215l-6-12.6a.517.517 0 00-.932 0l-6 12.6a.15.15 0 00.137.215h1.727a.152.152 0 00.137-.086l1.879-3.944a.15.15 0 01.136-.086h4.884a.151.151 0 01.137.086l1.879 3.944a.151.151 0 00.136.086m-6.164-6.138l1.438-3.018a.152.152 0 01.273 0l1.438 3.018a.151.151 0 01-.137.215h-2.875a.15.15 0 01-.137-.215m19.082 4.12a5.535 5.535 0 01-2.4.519 5.342 5.342 0 01-2.643-.68 4.9 4.9 0 01-1.879-1.82 5.173 5.173 0 010-5.074 4.9 4.9 0 011.879-1.819 5.342 5.342 0 012.643-.68 5.534 5.534 0 012.4.519 5.2 5.2 0 011.955 1.642.152.152 0 00.213.029l1.229-.937a.149.149 0 00.033-.2 6.5 6.5 0 00-2.529-2.16 7.513 7.513 0 00-3.32-.724 7.206 7.206 0 00-5.071 1.961 6.75 6.75 0 00-2.032 4.838v.144a6.752 6.752 0 002.032 4.838 7.206 7.206 0 005.071 1.961 7.506 7.506 0 003.32-.724 6.5 6.5 0 002.529-2.16.149.149 0 00-.033-.2l-1.229-.937a.151.151 0 00-.213.029 5.2 5.2 0 01-1.955 1.642" fill="#fff"/></svg>