<?xml version="1.0" encoding="UTF-8"?>
<svg xmlns="http://www.w3.org/2000/svg" xmlns:xlink="http://www.w3.org/1999/xlink" viewBox="0 0 128 128" width="128px" height="128px">
<g id="surface76689336">
<path style=" stroke:none;fill-rule:nonzero;fill:rgb(100%,100%,100%);fill-opacity:1;" d="M 64 5.121094 C 31.511719 5.121094 5.121094 31.511719 5.121094 64 C 5.121094 96.488281 31.511719 122.878906 64 122.878906 C 96.488281 122.878906 122.878906 96.488281 122.878906 64 C 122.878906 31.511719 96.488281 5.121094 64 5.121094 Z M 64 10.238281 C 93.71875 10.238281 117.761719 34.28125 117.761719 64 C 117.761719 93.71875 93.71875 117.761719 64 117.761719 C 34.28125 117.761719 10.238281 93.71875 10.238281 64 C 10.238281 34.28125 34.28125 10.238281 64 10.238281 Z M 84.453125 40.925781 C 83.78125 40.941406 83.136719 41.222656 82.671875 41.710938 L 64 60.378906 L 45.328125 41.710938 C 44.847656 41.214844 44.1875 40.933594 43.496094 40.933594 C 42.453125 40.933594 41.515625 41.566406 41.125 42.53125 C 40.730469 43.496094 40.964844 44.601562 41.710938 45.328125 L 60.378906 64 L 41.710938 82.671875 C 41.042969 83.3125 40.773438 84.265625 41.003906 85.164062 C 41.238281 86.058594 41.941406 86.761719 42.835938 86.996094 C 43.734375 87.226562 44.6875 86.957031 45.328125 86.289062 L 64 67.621094 L 82.671875 86.289062 C 83.3125 86.957031 84.265625 87.226562 85.164062 86.996094 C 86.058594 86.761719 86.761719 86.058594 86.996094 85.164062 C 87.226562 84.265625 86.957031 83.3125 86.289062 82.671875 L 67.621094 64 L 86.289062 45.328125 C 87.050781 44.597656 87.285156 43.472656 86.878906 42.5 C 86.472656 41.527344 85.511719 40.898438 84.453125 40.925781 Z M 84.453125 40.925781 "/>
</g>
</svg>
