<?xml version="1.0" encoding="UTF-8"?>
<svg xmlns="http://www.w3.org/2000/svg" xmlns:xlink="http://www.w3.org/1999/xlink" viewBox="0 0 144 144" width="144px" height="144px">
<g id="surface76616021">
<path style=" stroke:none;fill-rule:nonzero;fill:rgb(100%,100%,100%);fill-opacity:1;" d="M 47.25 11.519531 C 46.460938 11.6875 45.777344 12.171875 45.359375 12.871094 L 0.449219 84.871094 C -0.0898438 85.703125 -0.15625 86.761719 0.269531 87.660156 L 22.769531 133.738281 C 23.253906 134.742188 24.265625 135.371094 25.378906 135.359375 L 116.101562 135.359375 C 117.15625 135.347656 118.125 134.765625 118.621094 133.828125 L 143.640625 87.75 C 144.125 86.839844 144.089844 85.746094 143.550781 84.871094 L 98.640625 12.871094 C 98.109375 12.027344 97.199219 11.519531 96.210938 11.519531 L 47.789062 11.519531 C 47.699219 11.519531 47.609375 11.519531 47.519531 11.519531 C 47.429688 11.519531 47.339844 11.519531 47.25 11.519531 Z M 49.769531 17.28125 L 94.589844 17.28125 L 136.890625 85.140625 L 84.691406 69.121094 Z M 48.78125 18.359375 L 60.75 67.410156 L 27 129.421875 L 6.210938 86.578125 Z M 71.460938 61.648438 L 85.5 83.519531 L 58.5 83.519531 Z M 137.699219 86.578125 L 114.390625 129.601562 L 28.621094 129.601562 L 72 90.71875 Z M 137.699219 86.578125 "/>
</g>
</svg>
