<?xml version="1.0" encoding="UTF-8"?>
<svg xmlns="http://www.w3.org/2000/svg" xmlns:xlink="http://www.w3.org/1999/xlink" viewBox="0 0 128 128" width="128px" height="128px">
<g id="surface76634854">
<path style=" stroke:none;fill-rule:nonzero;fill:rgb(100%,100%,100%);fill-opacity:1;" d="M 87.601562 14 C 72.289062 14 59.839844 26.449219 59.839844 41.761719 C 59.839844 42.679688 60.070312 43.578125 60.160156 44.480469 C 41.230469 42.671875 24.488281 33.550781 13.121094 19.601562 C 12.589844 18.929688 11.769531 18.570312 10.910156 18.628906 C 10.058594 18.691406 9.300781 19.179688 8.878906 19.921875 C 6.488281 24.03125 5.121094 28.761719 5.121094 33.839844 C 5.121094 39.988281 7.320312 45.621094 10.71875 50.238281 C 10.058594 49.949219 9.339844 49.789062 8.71875 49.441406 C 7.929688 49.019531 6.980469 49.039062 6.210938 49.5 C 5.441406 49.960938 4.96875 50.789062 4.960938 51.679688 L 4.960938 52 C 4.960938 61.429688 9.839844 69.621094 17.039062 74.640625 C 16.960938 74.628906 16.878906 74.660156 16.800781 74.640625 C 15.921875 74.488281 15.03125 74.800781 14.441406 75.46875 C 13.851562 76.140625 13.660156 77.070312 13.921875 77.921875 C 16.78125 86.808594 24.078125 93.601562 33.121094 96.078125 C 25.921875 100.359375 17.570312 102.878906 8.558594 102.878906 C 6.609375 102.878906 4.738281 102.78125 2.878906 102.558594 C 1.679688 102.398438 0.53125 103.101562 0.128906 104.238281 C -0.28125 105.378906 0.171875 106.648438 1.199219 107.28125 C 12.75 114.691406 26.460938 119.039062 41.199219 119.039062 C 65.089844 119.039062 83.828125 109.058594 96.398438 94.800781 C 108.96875 80.539062 115.519531 62.019531 115.519531 44.71875 C 115.519531 43.988281 115.460938 43.28125 115.441406 42.558594 C 120.128906 38.96875 124.320312 34.761719 127.601562 29.839844 C 128.25 28.890625 128.179688 27.621094 127.429688 26.738281 C 126.691406 25.859375 125.441406 25.589844 124.398438 26.078125 C 123.078125 26.671875 121.539062 26.730469 120.160156 27.199219 C 121.980469 24.769531 123.539062 22.148438 124.480469 19.199219 C 124.800781 18.191406 124.449219 17.078125 123.621094 16.421875 C 122.789062 15.769531 121.628906 15.691406 120.71875 16.238281 C 116.351562 18.828125 111.511719 20.648438 106.398438 21.761719 C 101.441406 17.121094 94.910156 14 87.601562 14 Z M 87.601562 19.121094 C 94.128906 19.121094 100.03125 21.910156 104.160156 26.320312 C 104.78125 26.960938 105.691406 27.230469 106.558594 27.039062 C 109.898438 26.378906 113.070312 25.410156 116.160156 24.160156 C 114.378906 26.558594 112.179688 28.609375 109.601562 30.160156 C 108.429688 30.730469 107.878906 32.078125 108.308594 33.308594 C 108.730469 34.53125 110.011719 35.238281 111.28125 34.960938 C 113.839844 34.648438 116.121094 33.609375 118.558594 32.960938 C 116.371094 35.328125 113.96875 37.46875 111.359375 39.359375 C 110.648438 39.878906 110.261719 40.71875 110.320312 41.601562 C 110.359375 42.640625 110.398438 43.671875 110.398438 44.71875 C 110.398438 60.71875 104.261719 78.089844 92.558594 91.359375 C 80.859375 104.628906 63.679688 113.921875 41.199219 113.921875 C 30.988281 113.921875 21.351562 111.660156 12.640625 107.679688 C 23.441406 106.851562 33.398438 103.03125 41.441406 96.71875 C 42.28125 96.050781 42.609375 94.929688 42.269531 93.910156 C 41.929688 92.890625 40.988281 92.191406 39.921875 92.160156 C 31.480469 92.011719 24.410156 87.101562 20.640625 80.160156 C 20.78125 80.160156 20.898438 80.160156 21.039062 80.160156 C 23.570312 80.160156 26.070312 79.839844 28.398438 79.199219 C 29.519531 78.871094 30.289062 77.828125 30.25 76.660156 C 30.210938 75.488281 29.378906 74.488281 28.238281 74.238281 C 19.128906 72.398438 12.300781 64.980469 10.71875 55.761719 C 13.300781 56.648438 15.941406 57.351562 18.800781 57.441406 C 19.96875 57.511719 21.03125 56.78125 21.390625 55.671875 C 21.75 54.558594 21.308594 53.339844 20.320312 52.71875 C 14.238281 48.648438 10.238281 41.71875 10.238281 33.839844 C 10.238281 30.921875 11 28.238281 12 25.679688 C 24.800781 39.730469 42.71875 49.058594 62.960938 50.078125 C 63.761719 50.121094 64.539062 49.789062 65.058594 49.179688 C 65.578125 48.558594 65.78125 47.738281 65.601562 46.960938 C 65.210938 45.300781 64.960938 43.539062 64.960938 41.761719 C 64.960938 29.21875 75.058594 19.121094 87.601562 19.121094 Z M 87.601562 19.121094 "/>
</g>
</svg>
